HIERARCHY
ROOT Hips
{
	OFFSET 0.000000 0.000000 0.000000
	CHANNELS 6 Xposition Yposition Zposition Xrotation Yrotation Zrotation
	JOINT LeftUpLeg_virtual
	{
		OFFSET 0.000000 0.000000 0.000000
		CHANNELS 3 Xrotation Yrotation Zrotation
		JOINT LeftUpLeg
		{
			OFFSET 15.427100 -6.655098 0.678600
			CHANNELS 3 Xrotation Yrotation Zrotation
			JOINT LeftLeg
			{
				OFFSET 4.081073 -39.591068 13.024000
				CHANNELS 3 Xrotation Yrotation Zrotation
				JOINT LeftFoot
				{
					OFFSET -4.081074 -37.707932 -15.979700
					CHANNELS 3 Xrotation Yrotation Zrotation
					JOINT LeftToeBase
					{
						OFFSET 5.346399 -15.068900 20.645000
						CHANNELS 3 Xrotation Yrotation Zrotation
						JOINT LeftToe_End
						{
							OFFSET 2.754700 0.931300 11.300900
							CHANNELS 3 Xrotation Yrotation Zrotation
							End Site
							{
								OFFSET 0 0 0
							}
						}
					}
				}
			}
		}
	}
	JOINT RightUpLeg_virtual
	{
		OFFSET 0.000000 0.000000 0.000000
		CHANNELS 3 Xrotation Yrotation Zrotation
		JOINT RightUpLeg
		{
			OFFSET -15.569500 -6.655098 0.678600
			CHANNELS 3 Xrotation Yrotation Zrotation
			JOINT RightLeg
			{
				OFFSET -4.081825 -39.591045 13.023800
				CHANNELS 3 Xrotation Yrotation Zrotation
				JOINT RightFoot
				{
					OFFSET 4.081824 -37.707954 -15.979600
					CHANNELS 3 Xrotation Yrotation Zrotation
					JOINT RightToeBase
					{
						OFFSET -5.346400 -15.068900 20.645000
						CHANNELS 3 Xrotation Yrotation Zrotation
						JOINT RightToe_End
						{
							OFFSET -2.754700 0.931300 11.300900
							CHANNELS 3 Xrotation Yrotation Zrotation
							End Site
							{
								OFFSET 0 0 0
							}
						}
					}
				}
			}
		}
	}
	JOINT Spine_virtual
	{
		OFFSET 0.000000 0.000000 0.000000
		CHANNELS 3 Xrotation Yrotation Zrotation
		JOINT Spine
		{
			OFFSET -0.279200 12.230698 -2.892100
			CHANNELS 3 Xrotation Yrotation Zrotation
			JOINT Spine1
			{
				OFFSET -0.232667 10.192268 -1.242267
				CHANNELS 3 Xrotation Yrotation Zrotation
				JOINT Spine1_split
				{
					OFFSET -0.232667 10.192268 -1.242267
					CHANNELS 3 Xrotation Yrotation Zrotation
					JOINT Spine2
					{
						OFFSET -0.232667 10.192268 -1.242267
						CHANNELS 3 Xrotation Yrotation Zrotation
						JOINT Neck_virtual
						{
							OFFSET 0.000000 0.000000 0.000000
							CHANNELS 3 Xrotation Yrotation Zrotation
							JOINT Neck
							{
								OFFSET -0.418800 17.814194 8.416900
								CHANNELS 3 Xrotation Yrotation Zrotation
								JOINT Head
								{
									OFFSET 0.000000 7.031097 3.806800
									CHANNELS 3 Xrotation Yrotation Zrotation
									JOINT HeadTop_End
									{
										OFFSET 0.000000 24.646606 12.978600
										CHANNELS 3 Xrotation Yrotation Zrotation
										End Site
										{
											OFFSET 0 0 0
										}
									}
								}
							}
						}
						JOINT LeftShoulder_virtual
						{
							OFFSET 0.000000 0.000000 0.000000
							CHANNELS 3 Xrotation Yrotation Zrotation
							JOINT LeftShoulder
							{
								OFFSET 8.476499 7.247704 -3.868750
								CHANNELS 3 Xrotation Yrotation Zrotation
								JOINT LeftShoulder_split
								{
									OFFSET 8.476499 7.247704 -3.868750
									CHANNELS 3 Xrotation Yrotation Zrotation
									JOINT LeftArm
									{
										OFFSET 9.308998 -2.777710 0.208600
										CHANNELS 3 Xrotation Yrotation Zrotation
										JOINT LeftForeArm
										{
											OFFSET 29.972298 0.000000 0.000000
											CHANNELS 3 Xrotation Yrotation Zrotation
											JOINT LeftHand
											{
												OFFSET 26.026505 0.000000 0.000000
												CHANNELS 3 Xrotation Yrotation Zrotation
												End Site
												{
													OFFSET 0 0 0
												}
											}
										}
									}
								}
							}
						}
						JOINT RightShoulder_virtual
						{
							OFFSET 0.000000 0.000000 0.000000
							CHANNELS 3 Xrotation Yrotation Zrotation
							JOINT RightShoulder
							{
								OFFSET -7.570500 7.247704 -3.868750
								CHANNELS 3 Xrotation Yrotation Zrotation
								JOINT RightShoulder_split
								{
									OFFSET -7.570500 7.247704 -3.868750
									CHANNELS 3 Xrotation Yrotation Zrotation
									JOINT RightArm
									{
										OFFSET -9.308998 -2.777710 0.208500
										CHANNELS 3 Xrotation Yrotation Zrotation
										JOINT RightForeArm
										{
											OFFSET -29.972300 0.000000 0.000000
											CHANNELS 3 Xrotation Yrotation Zrotation
											JOINT RightHand
											{
												OFFSET -26.026505 0.000000 0.000000
												CHANNELS 3 Xrotation Yrotation Zrotation
												End Site
												{
													OFFSET 0 0 0
												}
											}
										}
									}
								}
							}
						}
					}
				}
			}
		}
	}
}
MOTION
Frames: 11
Frame Time: 0.03333333
14.885201 97.787987 -9.673981 0.000000 0.000000 0.000000 0.136418 25.330060 8.964935 -17.419317 0.425819 -7.789130 11.649378 12.816316 -2.299657 7.269841 4.376542 -0.025543 -0.008154 -1.910947 6.637372 0.000000 0.000000 0.000000 1.327326 22.463563 8.250594 13.867446 -17.770952 -8.885672 10.680398 -3.635653 -2.175606 -18.527071 -41.356963 25.320189 -7.799712 9.333927 0.878981 0.000000 0.000000 0.000000 6.191540 28.724965 4.263423 5.980631 -3.084983 13.335606 3.325021 7.920469 4.337504 0.030953 0.333040 0.157856 0.000000 0.000000 0.000000 7.177541 8.657381 5.515097 -25.223018 5.327323 6.308117 -42.667860 -22.940958 -48.433701 0.000000 0.000000 0.000000 2.175011 8.292167 4.095965 4.027961 5.181025 23.707351 2.034647 -5.178002 1.195173 -55.290105 12.390802 -30.808630 -18.510829 -12.098792 17.186154 0.000000 0.000000 0.000000 2.402521 7.815931 6.043896 3.170131 -4.711327 -6.484408 -4.630434 0.644396 -2.380149 16.734780 -2.996657 65.229912 -5.360356 -15.323465 2.319353 0.000000 0.000000 0.000000 
15.599780 96.295494 -9.965916 0.000000 0.000000 0.000000 -0.522897 34.487333 7.463535 -23.046429 -4.644401 -7.521647 14.549473 12.051845 -2.695321 10.695902 0.987325 -1.597408 -1.642123 -1.309838 6.624308 0.000000 0.000000 0.000000 0.663830 31.056751 6.683328 19.094677 -23.593990 -6.318845 7.020081 -2.676780 -0.489542 -20.318964 -39.608257 23.193946 -8.617481 8.750763 0.796907 0.000000 0.000000 0.000000 7.245616 36.453471 2.643470 4.085191 -2.492605 11.536581 2.552990 8.732019 2.424029 -0.068828 0.294301 0.124633 0.000000 0.000000 0.000000 6.379349 9.344165 3.546553 -23.856734 0.061545 10.217605 -44.305887 -27.482963 -47.551142 0.000000 0.000000 0.000000 1.804973 9.035684 1.985824 1.957003 12.705695 24.603993 0.186843 -5.289031 0.576600 -70.125340 22.922653 -33.383554 -25.853070 -13.851583 14.296400 0.000000 0.000000 0.000000 2.264850 8.687402 3.957880 2.731159 -2.015030 -8.110142 -4.243525 0.648566 -2.201289 13.944103 -6.889951 68.066223 -5.615269 -14.936707 2.209183 0.000000 0.000000 0.000000 
15.983603 94.542137 -10.038712 0.000000 0.000000 0.000000 -0.296311 42.375716 6.015289 -29.042641 -9.235217 -7.702671 17.320841 11.059998 -2.850018 14.691044 -2.425060 -1.947434 -3.397354 -0.822780 6.507552 0.000000 0.000000 0.000000 0.650385 38.612528 5.353337 22.801746 -28.724463 -3.764806 4.363034 -1.741881 1.316810 -21.785894 -37.523495 20.722490 -8.466869 8.004573 0.264499 0.000000 0.000000 0.000000 8.254984 43.157694 1.256733 2.543412 -1.982365 9.730182 2.038510 9.088228 0.208856 -0.165368 0.203452 -0.007506 0.000000 0.000000 0.000000 5.570304 9.639045 1.294224 -22.010992 -3.946476 13.577141 -45.156812 -32.666790 -45.836938 0.000000 0.000000 0.000000 1.777920 9.272182 -0.307914 0.560903 17.274873 23.957568 0.506072 -5.722273 0.712102 -80.229232 30.837795 -37.815404 -31.370062 -16.228335 10.872914 0.000000 0.000000 0.000000 2.485506 9.137517 1.690711 2.529752 1.955375 -8.873017 -3.499956 0.764865 -1.830976 10.349402 -7.389367 69.647296 -6.304814 -14.715853 2.237157 0.000000 0.000000 0.000000 
16.125629 92.683212 -9.818466 0.000000 0.000000 0.000000 0.791795 48.655894 4.514232 -34.059227 -12.547661 -8.638359 18.717363 10.632354 -2.449963 17.545624 -4.787247 -0.828273 -4.227029 -0.271389 5.870837 0.000000 0.000000 0.000000 1.416362 44.826518 4.126526 25.432293 -33.107880 -1.291558 2.256181 -0.851080 3.014717 -23.460802 -35.361354 17.879376 -7.348368 7.218637 -0.726987 0.000000 0.000000 0.000000 9.270075 48.668762 0.010340 1.320916 -1.563389 7.902185 1.866022 9.087547 -1.920518 -0.128250 0.036061 -0.103470 0.000000 0.000000 0.000000 4.885191 9.648922 -0.819843 -20.296032 -6.586485 15.853713 -45.909028 -37.974868 -43.679521 0.000000 0.000000 0.000000 1.949364 9.189765 -2.369672 -0.025648 19.036594 21.727014 1.718213 -5.735955 1.340936 -84.924803 36.421034 -43.787380 -35.371661 -18.321793 6.937783 0.000000 0.000000 0.000000 2.939103 9.259307 -0.352236 2.383799 6.636709 -8.939651 -2.332489 0.352752 -1.355328 5.919703 -5.465576 69.010886 -7.431151 -14.860075 2.416081 0.000000 0.000000 0.000000 
16.119328 90.947365 -9.318565 0.000000 0.000000 0.000000 2.615210 53.307390 2.992310 -37.497448 -14.534909 -10.206510 18.512958 10.605867 -1.370174 18.585093 -5.972864 0.992154 -3.832585 0.284683 4.980892 0.000000 0.000000 0.000000 2.822867 49.605550 2.979951 27.265157 -36.620879 1.002724 0.636800 0.031825 4.419221 -25.541197 -33.336084 14.801426 -5.752656 6.475225 -2.061884 0.000000 0.000000 0.000000 10.693618 52.699271 -1.368961 0.372195 -1.145909 6.137783 1.972884 8.867250 -3.610885 -0.043929 0.013852 -0.148976 0.000000 0.000000 0.000000 4.466771 9.518615 -2.459753 -19.207066 -7.839813 16.587355 -46.989072 -42.806677 -41.445827 0.000000 0.000000 0.000000 2.189779 9.003235 -3.904158 0.022381 18.500235 18.267285 3.006346 -4.325893 2.590853 -84.906286 39.936041 -50.236724 -38.337910 -20.493660 2.290061 0.000000 0.000000 0.000000 3.402814 9.166921 -1.919351 2.121769 11.283557 -8.714877 -1.199636 -0.822582 -0.807735 0.299428 -2.800349 65.905834 -8.918479 -15.327079 2.766927 0.000000 0.000000 0.000000 
16.029591 89.351471 -8.772186 0.000000 0.000000 0.000000 4.582535 56.585317 1.673515 -39.848468 -15.772073 -11.971742 17.466737 10.338553 0.123479 18.682989 -6.811923 2.289547 -2.229202 0.773537 4.098151 0.000000 0.000000 0.000000 4.652749 52.936008 1.872113 28.336442 -39.220258 2.901878 -0.500670 0.950367 5.488955 -27.642412 -31.453028 11.887514 -4.164444 5.818280 -3.496358 0.000000 0.000000 0.000000 12.254411 55.544932 -2.793233 -0.280317 -0.620432 4.524167 2.205314 8.621460 -4.702825 0.116189 0.059870 -0.152312 0.000000 0.000000 0.000000 4.358630 9.384121 -3.439145 -18.777848 -7.812178 15.595383 -48.769221 -46.713043 -39.596024 0.000000 0.000000 0.000000 2.299904 8.906144 -4.807720 0.317269 16.642705 13.984514 3.760702 -1.972792 3.699482 -82.141153 41.998816 -55.655284 -40.761640 -22.624486 -3.063712 0.000000 0.000000 0.000000 3.722224 9.055332 -2.914449 1.722598 15.002755 -8.632896 -0.268300 -2.295057 -0.114041 -6.967169 -0.361462 60.888951 -10.640060 -15.645045 3.271130 0.000000 0.000000 0.000000 
15.978560 88.009659 -8.377728 0.000000 0.000000 0.000000 6.374578 58.728576 0.654026 -41.894792 -16.447678 -13.578500 16.620039 9.503986 1.629708 18.932282 -7.912971 2.664451 0.132468 1.097051 3.458790 0.000000 0.000000 0.000000 6.678024 55.050993 0.779345 28.897793 -41.011997 4.327816 -1.101454 1.926784 6.307378 -29.238134 -29.728405 9.672969 -2.962463 5.260892 -4.693553 0.000000 0.000000 0.000000 13.920179 57.262178 -4.184634 -0.683889 0.056372 3.216497 2.400928 8.487503 -5.206546 0.282487 0.239774 -0.049270 0.000000 0.000000 0.000000 4.461348 9.354689 -3.823478 -18.931281 -6.633815 13.217094 -51.142828 -49.671246 -38.371074 0.000000 0.000000 0.000000 2.255772 9.017717 -5.166140 0.547793 14.397231 9.183537 3.412208 0.892932 3.799866 -78.045519 43.010412 -59.242964 -43.135950 -25.102723 -9.347066 0.000000 0.000000 0.000000 3.872224 9.021350 -3.434050 1.265741 17.246439 -8.862532 0.135854 -3.338186 0.692914 -15.662513 1.572390 55.122762 -12.246799 -15.451288 3.943882 0.000000 0.000000 0.000000 
16.002897 87.036186 -8.253262 0.000000 0.000000 0.000000 7.939623 60.057457 -0.133247 -43.625552 -16.877056 -14.954003 15.954646 8.249570 3.041498 19.652046 -9.380639 2.536378 1.633355 1.153928 3.655878 0.000000 0.000000 0.000000 8.595957 56.141484 -0.253631 29.085893 -42.133784 5.295046 -1.364390 2.855501 6.862782 -30.406899 -28.255629 7.948464 -2.011552 4.805828 -5.396765 0.000000 0.000000 0.000000 15.486315 58.119152 -5.400581 -0.892785 0.905359 2.302210 2.489407 8.511293 -5.271860 0.398720 0.396426 0.003706 0.000000 0.000000 0.000000 4.698660 9.455827 -3.799675 -19.322930 -4.630048 10.032034 -53.316054 -51.833756 -37.274279 0.000000 0.000000 0.000000 2.103681 9.300646 -5.177616 0.528517 12.575175 4.427419 3.814802 3.604184 3.486725 -74.098864 43.363365 -60.634670 -45.940481 -28.243445 -16.755578 0.000000 0.000000 0.000000 3.930829 9.134564 -3.660080 0.811739 17.996357 -9.473436 0.148258 -3.965279 1.390721 -25.180134 2.957376 49.923895 -13.506329 -14.600933 4.802912 0.000000 0.000000 0.000000 
16.006714 86.363258 -8.430630 0.000000 0.000000 0.000000 9.324917 60.987107 -0.860680 -44.861471 -17.175161 -16.141509 14.969123 7.173027 4.299637 20.085126 -10.856759 2.478217 1.568040 1.063129 4.439706 0.000000 0.000000 0.000000 10.316962 56.513941 -1.222224 29.252307 -42.777731 6.083607 -1.515480 3.429058 7.135374 -31.371540 -27.142632 6.113830 -0.866868 4.437160 -5.502557 0.000000 0.000000 0.000000 16.661230 58.514934 -6.264195 -0.915034 1.828582 1.753057 2.475230 8.702908 -5.135951 0.448817 0.430718 0.049514 0.000000 0.000000 0.000000 4.946179 9.669856 -3.572671 -19.761834 -2.334161 6.883657 -54.640048 -53.613522 -35.916642 0.000000 0.000000 0.000000 1.890137 9.669045 -5.051879 0.275818 11.649006 0.238713 4.090479 5.471300 2.786769 -71.572419 43.248754 -59.710914 -48.602134 -30.799427 -24.240399 0.000000 0.000000 0.000000 4.051307 9.365510 -3.729688 0.412492 17.611732 -10.216819 -0.146688 -4.529638 2.207216 -34.086974 3.857813 46.283875 -14.128216 -12.969397 5.820480 0.000000 0.000000 0.000000 
15.990121 86.005730 -8.684208 0.000000 0.000000 0.000000 10.793003 61.702078 -1.707391 -45.739011 -17.109979 -17.114048 13.673990 6.773879 5.362837 19.897557 -11.814026 2.656486 1.079771 0.976088 4.922592 0.000000 0.000000 0.000000 11.789304 56.577462 -2.069876 29.545930 -43.131890 6.824342 -1.731673 3.543013 7.218538 -32.256371 -26.390753 3.955328 0.525539 4.182626 -5.084352 0.000000 0.000000 0.000000 17.694589 58.768560 -6.899942 -0.754222 2.700924 1.490073 2.420626 8.941469 -4.945427 0.440916 0.400403 -0.019869 0.000000 0.000000 0.000000 5.121648 9.921443 -3.346643 -20.252312 -0.248391 4.490480 -54.444428 -55.499149 -33.687432 0.000000 0.000000 0.000000 1.722854 9.999489 -4.921299 -0.132814 11.502739 -2.907961 4.523201 6.481528 2.483944 -70.601569 42.527439 -57.346227 -50.833126 -32.741529 -31.127388 0.000000 0.000000 0.000000 4.299371 9.623997 -3.763901 0.072408 16.715090 -10.814772 -0.838658 -5.431929 3.086883 -41.110471 3.887631 44.380479 -14.084094 -10.588897 6.974394 0.000000 0.000000 0.000000 
15.835397 85.903778 -8.963516 0.000000 0.000000 0.000000 12.254562 62.340052 -2.632157 -46.435266 -16.703627 -17.866361 12.383420 6.961985 6.231243 19.798020 -12.096198 2.569822 1.648506 1.011659 4.613006 0.000000 0.000000 0.000000 12.971531 56.744160 -2.749746 29.845379 -43.374317 7.508866 -2.081511 3.275560 7.133325 -32.993222 -25.952448 1.749671 1.629732 4.091768 -4.372361 0.000000 0.000000 0.000000 18.482668 59.075249 -7.311765 -0.385348 3.433900 1.397270 2.389065 9.154454 -4.791561 0.394527 0.301093 -0.145660 0.000000 0.000000 0.000000 5.222308 10.145794 -3.212160 -20.933597 1.157380 3.279063 -52.446663 -57.442075 -30.251792 0.000000 0.000000 0.000000 1.631331 10.207565 -4.843822 -0.582632 11.943663 -4.896698 4.704890 6.014730 2.922555 -70.907302 40.916842 -54.420506 -52.477013 -34.313658 -36.903369 0.000000 0.000000 0.000000 4.609654 9.889960 -3.748480 -0.247955 15.919130 -11.064295 -1.256438 -6.596954 3.655331 -45.671351 2.787896 43.796604 -13.531751 -7.312121 8.205478 0.000000 0.000000 0.000000 
